<?xml version="1.0" encoding="UTF-8" standalone="no"?>
<svg
   height="533.33337"
   width="756.99182"
   viewBox="-35.20005 -41.33325 192.44442 165.33301"
   version="1.1"
   id="svg2739"
   sodipodi:docname="youtube.svg"
   inkscape:version="1.2.2 (732a01da63, 2022-12-09, custom)"
   xmlns:inkscape="http://www.inkscape.org/namespaces/inkscape"
   xmlns:sodipodi="http://sodipodi.sourceforge.net/DTD/sodipodi-0.dtd"
   xmlns="http://www.w3.org/2000/svg"
   xmlns:svg="http://www.w3.org/2000/svg">
  <defs
     id="defs2743" />
  <sodipodi:namedview
     id="namedview2741"
     pagecolor="#ffffff"
     bordercolor="#999999"
     borderopacity="1"
     inkscape:showpageshadow="0"
     inkscape:pageopacity="0"
     inkscape:pagecheckerboard="0"
     inkscape:deskcolor="#d1d1d1"
     showgrid="false"
     inkscape:zoom="0.71378977"
     inkscape:cx="127.48852"
     inkscape:cy="147.80262"
     inkscape:window-width="1848"
     inkscape:window-height="1016"
     inkscape:window-x="72"
     inkscape:window-y="27"
     inkscape:window-maximized="1"
     inkscape:current-layer="svg2739" />
  <path
     d="m 37.021667,76.22575 v -69.784 l 61.334,34.893 z m 136.429993,-91.742 c -2.699,-10.162 -10.651,-18.165 -20.747,-20.881 -18.3,-4.936 -91.682993,-4.936 -91.682993,-4.936 0,0 -73.382,0 -91.682,4.936 -10.096,2.716 -18.048,10.719 -20.747,20.881 -4.904,18.419 -4.904,56.85 -4.904,56.85 0,0 0,38.429 4.904,56.849 2.699,10.163 10.65,18.165 20.747,20.883 18.3,4.934 91.682,4.934 91.682,4.934 0,0 73.382993,0 91.682993,-4.934 10.096,-2.718 18.048,-10.72 20.747,-20.883 4.904,-18.42 4.904,-56.85 4.904,-56.85 0,0 0,-38.43 -4.904,-56.849"
     fill="#ffffff"
     id="path2737"
     style="fill:#ffffff;fill-opacity:1" />
</svg>
