<?xml version="1.0" encoding="UTF-8" standalone="no"?>
<!-- Created with Inkscape (http://www.inkscape.org/) -->

<svg
   version="1.1"
   id="svg1428"
   width="42.666664"
   height="53.333332"
   viewBox="0 0 42.666664 53.333332"
   sodipodi:docname="document_closed.svg"
   inkscape:version="1.3.2 (091e20ef0f, 2023-11-25)"
   xmlns:inkscape="http://www.inkscape.org/namespaces/inkscape"
   xmlns:sodipodi="http://sodipodi.sourceforge.net/DTD/sodipodi-0.dtd"
   xmlns="http://www.w3.org/2000/svg"
   xmlns:svg="http://www.w3.org/2000/svg">
  <defs
     id="defs1432" />
  <sodipodi:namedview
     id="namedview1430"
     pagecolor="#ffffff"
     bordercolor="#999999"
     borderopacity="1"
     inkscape:showpageshadow="0"
     inkscape:pageopacity="0"
     inkscape:pagecheckerboard="0"
     inkscape:deskcolor="#d1d1d1"
     showgrid="false"
     inkscape:zoom="9.5273435"
     inkscape:cx="65.86306"
     inkscape:cy="37.208693"
     inkscape:window-width="3764"
     inkscape:window-height="2091"
     inkscape:window-x="1996"
     inkscape:window-y="32"
     inkscape:window-maximized="1"
     inkscape:current-layer="g1438">
    <inkscape:page
       x="0"
       y="0"
       id="page1434"
       width="42.666664"
       height="53.333332"
       margin="0"
       bleed="0" />
  </sodipodi:namedview>
  <g
     id="g1436"
     inkscape:groupmode="layer"
     inkscape:label="Page 1"
     transform="matrix(1.3333333,0,0,-1.3333333,-21.333333,69.333332)">
    <g
       id="g1438"
       transform="scale(0.1)">
      <path
         id="path1440"
         style="fill:#ffffff;fill-opacity:1;fill-rule:nonzero;stroke:none"
         d="M 190 520 C 173.43002 520 160 506.56999 160 490 L 160 149.99511 C 160 133.42513 173.43002 119.99511 190 119.99511 L 449.99513 119.99511 C 466.56511 119.99511 479.99513 133.42513 479.99513 149.99511 L 479.99513 389.99512 L 396.66016 389.99512 C 370.93019 389.99512 350.00489 410.93507 350.00489 436.66504 L 350.00489 520 L 190 520 z M 220 419.99512 L 316.25489 419.99512 L 316.25489 400 L 220 400 L 220 419.99512 z M 220 370 L 419.99513 370 L 419.99513 350.00488 L 220 350.00488 L 220 370 z M 220 320.00488 L 419.99513 320.00488 L 419.99513 299.99511 L 220 299.99511 L 220 320.00488 z M 220 269.99511 L 419.99513 269.99511 L 419.99513 250 L 220 250 L 220 269.99511 z M 220 220 L 320.25391 220 L 320.00489 200.00488 L 220 200.00488 L 220 220 z M 413.6963 215.00488 C 428.70879 215.00488 440.92774 202.78653 440.92774 187.77343 L 440.92774 185.41503 L 443.94532 185.41503 C 447.28712 185.41503 449.99513 182.70704 449.99513 179.36523 L 449.99513 141.04492 C 449.99513 137.70312 447.28712 134.99511 443.94532 134.99511 L 383.44727 134.99511 C 380.10548 134.99511 377.39747 137.70312 377.39747 141.04492 L 377.39747 179.36523 C 377.39747 182.70704 380.10548 185.41503 383.44727 185.41503 L 386.46485 185.41503 L 386.46485 187.77343 C 386.46485 202.78653 398.68401 215.00488 413.6963 215.00488 z M 413.6963 204.9121 C 404.24347 204.9121 396.55762 197.22465 396.55762 187.77343 L 396.55762 185.41503 L 430.83497 185.41503 L 430.83497 187.77343 C 430.83497 197.22465 423.14914 204.9121 413.6963 204.9121 z M 413.6963 171.30859 C 409.24043 171.30859 405.62501 167.69316 405.62501 163.2373 C 405.62501 160.25851 407.26681 157.67692 409.66798 156.27929 L 409.66798 151.13769 C 409.66798 148.90975 411.46837 147.09472 413.6963 147.09472 C 415.92423 147.09472 417.72462 148.90975 417.72462 151.13769 L 417.72462 156.27929 C 420.12579 157.67692 421.76759 160.25851 421.76759 163.2373 C 421.76759 167.69316 418.15217 171.30859 413.6963 171.30859 z " />
      <path
         d="M 370,436.664 C 370,421.965 381.965,410 396.664,410 h 85.859 L 370,522.523 v -85.859"
         style="fill:#ffffff;fill-opacity:1;fill-rule:nonzero;stroke:none"
         id="path1442" />
      <path
         d="M 396.664,410 C 381.965,410 370,421.965 370,436.664 v 85.859 L 482.523,410 Z M 480,150 c 0,-16.57 -13.43,-30 -30,-30 H 190 c -16.57,0 -30,13.43 -30,30 v 340 c 0,16.57 13.43,30 30,30 H 350 V 436.664 C 350,410.934 370.934,390 396.664,390 H 480 Z M 320,640 C 143.27,640 0,496.73 0,320 0,143.27 143.27,0 320,0 496.73,0 640,143.27 640,320 640,496.73 496.73,640 320,640"
         style="opacity:0;fill:#ffffff;fill-opacity:1;fill-rule:nonzero;stroke:none"
         id="path1444" />
      <path
         d="M 316.25,420 H 220 v -20 h 96.25 v 20"
         style="opacity:0;fill:#ffffff;fill-opacity:1;fill-rule:nonzero;stroke:none"
         id="path1446" />
      <path
         d="m 220,300 h 200 v 20 H 220 v -20"
         style="opacity:0;fill:#ffffff;fill-opacity:1;fill-rule:nonzero;stroke:none"
         id="path1448" />
      <path
         d="m 220,350 h 200 v 20 H 220 v -20"
         style="opacity:0;fill:#ffffff;fill-opacity:1;fill-rule:nonzero;stroke:none"
         id="path1450" />
      <path
         d="m 220,250 h 200 v 20 H 220 v -20"
         style="opacity:0;fill:#ffffff;fill-opacity:1;fill-rule:nonzero;stroke:none"
         id="path1452" />
      <path
         d="m 220,200 h 200 v 20 H 220 v -20"
         style="opacity:0;fill:#ffffff;fill-opacity:1;fill-rule:nonzero;stroke:none"
         id="path1454" />
    </g>
  </g>
</svg>
