<?xml version="1.0" encoding="UTF-8" standalone="no"?>
<!-- Created with Inkscape (http://www.inkscape.org/) -->

<svg
   version="1.1"
   id="svg218"
   width="42.666016"
   height="53.333984"
   viewBox="0 0 42.666016 53.333984"
   sodipodi:docname="document.eps"
   xmlns:inkscape="http://www.inkscape.org/namespaces/inkscape"
   xmlns:sodipodi="http://sodipodi.sourceforge.net/DTD/sodipodi-0.dtd"
   xmlns="http://www.w3.org/2000/svg"
   xmlns:svg="http://www.w3.org/2000/svg">
  <defs
     id="defs222" />
  <sodipodi:namedview
     id="namedview220"
     pagecolor="#74ffff"
     bordercolor="#999999"
     borderopacity="1"
     inkscape:showpageshadow="0"
     inkscape:pageopacity="0"
     inkscape:pagecheckerboard="0"
     inkscape:deskcolor="#d1d1d1"
     showgrid="false"
     inkscape:zoom="6.5227248"
     inkscape:cx="26.675968"
     inkscape:cy="51.128939"
     inkscape:window-width="1848"
     inkscape:window-height="1016"
     inkscape:window-x="72"
     inkscape:window-y="27"
     inkscape:window-maximized="1"
     inkscape:current-layer="g228" />
  <g
     id="g226"
     inkscape:groupmode="layer"
     inkscape:label="Page 1"
     transform="matrix(1.3333333,0,0,-1.3333333,-21.333984,69.333333)">
    <g
       id="g228"
       transform="scale(0.1)">
      <path
         id="path230"
         style="fill:#ffffff;fill-opacity:1;fill-rule:nonzero;stroke:none"
         d="m 190.00489,520.00001 c -16.56998,0 -30,-13.43004 -30,-30 V 149.99512 c 0,-16.56996 13.43002,-30 30,-30 h 259.99512 c 16.56996,0 30,13.43004 30,30 v 240 h -83.33496 c -25.72996,0 -46.66992,20.93997 -46.66992,46.66993 v 83.33496 z m 30,-100.00488 h 96.24024 v -19.99512 h -96.24024 z m 0,-49.99512 H 330.00001 V 350.00489 H 220.00489 Z m 136.99219,0 h 56.00098 c 3.86629,0 7.00195,-3.13565 7.00195,-7.00196 v -14.0039 -41.99707 c 0,-3.86561 -3.13566,-6.98731 -7.00195,-6.98731 h -56.00098 c -3.8663,0 -6.98731,3.1217 -6.98731,6.98731 v 41.99707 14.0039 c 0,3.86631 3.12101,7.00196 6.98731,7.00196 z m 0,-7.00196 v -14.0039 -30.60059 l 14.45801,18.04688 c 3.90934,4.97155 10.31357,4.97155 14.22363,0 l 10.48828,-13.34473 4.81934,4.62891 c 2.6809,2.98292 5.75004,2.29689 7.80762,-0.13184 1.5107,-1.78213 3.08501,-4.14056 4.2041,-5.91797 v 27.31934 14.0039 z m 41.99707,-8.74511 c 2.89964,0 5.25879,-2.35916 5.25879,-5.25879 0,-2.89964 -2.35915,-5.24414 -5.25879,-5.24414 -2.89964,0 -5.24414,2.3445 -5.24414,5.24414 0,2.89963 2.3445,5.25879 5.24414,5.25879 z M 220.00489,320.00489 H 330.00001 V 299.99512 H 220.00489 Z m 6.9873,-50.00977 h 56.00098 c 3.86591,0 7.00195,-3.13605 7.00195,-7.00195 v -13.98926 -41.99707 c 0,-3.86521 -3.13604,-7.00195 -7.00195,-7.00195 h -56.00098 c -3.8659,0 -6.9873,3.13674 -6.9873,7.00195 v 41.99707 13.98926 c 0,3.8659 3.1214,7.00195 6.9873,7.00195 z m 83.0127,0 H 420.00001 V 250 H 310.00489 Z m -83.0127,-7.00195 v -13.98926 -30.61524 l 14.45801,18.04688 c 3.90895,4.97105 10.31398,4.97105 14.22363,0 l 10.48829,-13.34473 4.81933,4.62891 c 2.68063,2.98263 5.75026,2.29665 7.80762,-0.13184 1.51056,-1.78195 3.08513,-4.14074 4.2041,-5.91797 v 27.33399 13.98926 z m 41.99707,-8.74512 c 2.89935,0 5.25879,-2.3448 5.25879,-5.24414 0,-2.89934 -2.35944,-5.25879 -5.25879,-5.25879 -2.89934,0 -5.24414,2.35945 -5.24414,5.25879 0,2.89934 2.3448,5.24414 5.24414,5.24414 z M 310.00489,220 H 420.00001 V 200.00489 H 310.00489 Z" />
      <path
         d="m 367.47701,434.14101 c 0,-14.699 11.965,-26.664 26.664,-26.664 h 85.859 l -112.523,112.523 v -85.859"
         style="fill:#ffffff;fill-opacity:1;fill-rule:nonzero;stroke:none"
         id="path232"
         inkscape:export-filename="../df001e02/poster.svg"
         inkscape:export-xdpi="96"
         inkscape:export-ydpi="96" />
    </g>
  </g>
</svg>
